<?xml version="1.0" standalone="no"?>
<!DOCTYPE svg PUBLIC "-//W3C//DTD SVG 1.1//EN" "http://www.w3.org/Graphics/SVG/1.1/DTD/svg11.dtd" >
<svg>
<metadata>
Created by FontForge 20090622 at Fri Sep 16 13:36:32 2016
 By deploy user
URW Software, Copyright 1994 by URW
</metadata>
<defs>
<font id="HandelGotD-Bold" horiz-adv-x="500" >
  <font-face 
    font-family="Handel Gothic D"
    font-weight="700"
    font-stretch="normal"
    units-per-em="1000"
    panose-1="0 0 0 0 0 0 0 0 0 0"
    ascent="800"
    descent="-200"
    x-height="487"
    cap-height="667"
    bbox="-158 -200 1238 898"
    underline-thickness="109"
    underline-position="-39"
    unicode-range="U+0020-U+FB02"
  />
<missing-glyph horiz-adv-x="250" 
 />
    <glyph glyph-name=".notdef" horiz-adv-x="250" 
 />
    <glyph glyph-name=".null" horiz-adv-x="0" 
 />
    <glyph glyph-name="nonmarkingreturn" horiz-adv-x="333" 
 />
    <glyph glyph-name="space" unicode=" " horiz-adv-x="250" 
 />
    <glyph glyph-name="exclam" unicode="!" horiz-adv-x="274" 
d="M208 667v-504h-142v504h142zM208 113v-113h-142v113h142z" />
    <glyph glyph-name="quotedbl" unicode="&#x22;" horiz-adv-x="409" 
d="M154 399h-91v268h91v-268zM347 399h-91v268h91v-268z" />
    <glyph glyph-name="numbersign" unicode="#" horiz-adv-x="653" 
d="M196 633h112l-27 -168h131l27 168h113l-27 -168h110l-10 -67h-111l-18 -116h110l-10 -67h-111l-29 -182h-112l29 182h-131l-29 -182h-113l29 182h-110l11 67h110l18 116h-110l10 67h111zM402 398h-131l-18 -116h130z" />
    <glyph glyph-name="dollar" unicode="$" horiz-adv-x="696" 
d="M308 119v161q-82 0 -109 3t-60 15q-46 19 -75 66.5t-29 104.5q0 73 42 129.5t103 64.5q38 4 128 4v96h82v-96h234v-119h-234v-149q83 0 116 -5t65 -21q43 -22 66.5 -68t23.5 -108q0 -60 -27 -109t-71 -69q-28 -13 -57.5 -16t-115.5 -3v-98h-82v98h-241v119h241zM390 280
v-161q43 2 58 6q24 5 39.5 25.5t15.5 46.5q0 49 -43 71q-20 11 -70 12zM308 399v149q-32 0 -60 -4q-56 -8 -56 -70q0 -64 69 -73q10 -2 47 -2z" />
    <glyph glyph-name="percent" unicode="%" horiz-adv-x="883" 
d="M217 670q177 0 177 -169q0 -168 -169 -168q-186 0 -186 168q0 87 43 128t135 41zM213 598q-76 0 -76 -93q0 -52 19.5 -76t63.5 -24q76 0 76 99q0 94 -83 94zM531 667h85l-269 -667h-85zM666 333q177 0 177 -169q0 -168 -170 -168q-186 0 -186 168q0 87 43.5 128t135.5 41
zM661 261q-76 0 -76 -94q0 -52 20 -75.5t64 -23.5q76 0 76 99q0 94 -84 94z" />
    <glyph glyph-name="ampersand" unicode="&#x26;" horiz-adv-x="751" 
d="M737 393v-119h-93q-49 -154 -127.5 -216t-222.5 -62q-109 0 -165 34q-85 51 -85 164q0 50 22.5 87t61.5 51q-49 31 -71 68t-22 90q0 50 24 93.5t64 63.5q42 20 137 20h223v-119h-191q-94 0 -94 -75q0 -35 22 -57.5t57 -22.5h48v-119h-17q-40 0 -55 -2.5t-26 -10.5
q-27 -20 -27 -61q0 -84 109 -84q79 0 122.5 37t62.5 121h-96v119h339z" />
    <glyph glyph-name="quotesingle" unicode="'" horiz-adv-x="216" 
d="M154 399h-91v268h91v-268z" />
    <glyph glyph-name="parenleft" unicode="(" horiz-adv-x="425" 
d="M392 762v-111q-110 -6 -157 -82t-47 -248q0 -171 63 -241q24 -28 56 -41.5t85 -18.5v-112q-92 7 -148.5 28.5t-99.5 65.5q-100 106 -100 327q0 243 125 356q45 41 90.5 57t132.5 20z" />
    <glyph glyph-name="parenright" unicode=")" horiz-adv-x="425" 
d="M33 651v111q95 -5 138 -23q101 -41 155.5 -147t54.5 -263q0 -247 -123 -347q-40 -34 -91.5 -51t-133.5 -23v112q53 5 85 18.5t56 41.5q63 70 63 241q0 172 -47 248t-157 82z" />
    <glyph glyph-name="asterisk" unicode="*" horiz-adv-x="367" 
d="M131 380l-64 46l54 74l-91 27l28 74l89 -29l-3 95h79l-3 -95l88 29l29 -74l-91 -27l54 -74l-64 -46l-53 75z" />
    <glyph glyph-name="plus" unicode="+" horiz-adv-x="559" 
d="M37 395h187v178h113v-178h186v-109h-186v-179h-113v179h-187v109z" />
    <glyph glyph-name="comma" unicode="," horiz-adv-x="234" 
d="M182 130v-116l-77 -151h-61l61 137h-44v130h121z" />
    <glyph glyph-name="hyphen" unicode="-" horiz-adv-x="233" 
d="M233 318v-120h-233v120h233z" />
    <glyph glyph-name="period" unicode="." horiz-adv-x="224" 
d="M172 130v-130h-121v130h121z" />
    <glyph glyph-name="slash" unicode="/" horiz-adv-x="533" 
d="M84 -92h-125l491 850h125z" />
    <glyph glyph-name="zero" unicode="0" horiz-adv-x="725" 
d="M363 671q328 0 328 -337q0 -171 -77.5 -254.5t-235.5 -83.5q-174 0 -259.5 83.5t-85.5 252.5q0 175 80 257t250 82zM355 559q-46 0 -83 -20.5t-56 -56.5q-27 -54 -27 -143q0 -106 33 -163q40 -68 148 -68q53 0 86.5 19.5t53.5 62.5q25 54 25 149q0 114 -47 169
q-43 51 -133 51z" />
    <glyph glyph-name="one" unicode="1" horiz-adv-x="278" 
d="M210 0h-142v667h142v-667z" />
    <glyph glyph-name="two" unicode="2" horiz-adv-x="661" 
d="M177 118h435v-118h-577v177q0 115 57 171q27 27 58 35.5t100 8.5h109q55 0 81 15q33 20 33 60q0 48 -35 68q-26 14 -79 14h-313v118h343q130 0 182 -46q58 -52 58 -148q0 -61 -21.5 -106t-59.5 -66q-50 -27 -149 -27h-94q-52 0 -77 -7t-36 -24q-15 -23 -15 -66v-59z" />
    <glyph glyph-name="three" unicode="3" horiz-adv-x="619" 
d="M33 0v118h286q58 0 82 18t24 61q0 51 -35 70q-19 11 -71 11h-223v118h223q63 0 84 17q21 18 21 58q0 45 -32 66q-18 12 -73 12h-286v118h311q68 -1 87.5 -3t42.5 -12q47 -19 76.5 -66t29.5 -103q0 -94 -89 -145q90 -58 90 -161q0 -95 -72 -142q-33 -21 -70 -28t-113 -7
h-293z" />
    <glyph glyph-name="four" unicode="4" horiz-adv-x="706" 
d="M25 116v141l376 410h187v-433h88v-118h-88v-116h-142v116h-421zM184 234h262v285z" />
    <glyph glyph-name="five" unicode="5" horiz-adv-x="676" 
d="M606 667v-118h-406v-153h211q116 0 165 -39q66 -54 66 -153q0 -130 -112 -180q-58 -24 -180 -24h-292v118h292q61 0 93 10q20 7 31.5 25.5t11.5 43.5q0 27 -13 48t-34 27q-17 5 -89 6h-292v389h548z" />
    <glyph glyph-name="six" unicode="6" horiz-adv-x="691" 
d="M192 393h225q79 0 115.5 -8t62.5 -31q61 -52 61 -147q0 -117 -104 -177q-61 -34 -183 -34q-90 0 -145 16t-95 53q-45 43 -70.5 114.5t-25.5 155.5q0 89 30 165.5t79 114.5q39 29 89.5 40.5t142.5 11.5h246v-118h-203q-139 1 -176 -28q-49 -36 -49 -128zM392 275h-200
q1 -75 29 -116q19 -29 52 -40t99 -11q68 0 98 19.5t30 65.5q0 44 -33 68q-20 14 -75 14z" />
    <glyph glyph-name="seven" unicode="7" horiz-adv-x="632" 
d="M609 667v-118l-405 -549h-174l419 549h-422v118h582z" />
    <glyph glyph-name="eight" unicode="8" horiz-adv-x="707" 
d="M138 333q-56 34 -78 70t-22 92q0 123 113 161q45 15 185 15q116 0 159.5 -3.5t72.5 -16.5q46 -20 73 -64.5t27 -100.5q0 -108 -102 -153q47 -27 64 -49q35 -43 35 -105q0 -79 -60 -136q-29 -26 -80 -36.5t-154 -10.5q-86 0 -133 3q-96 3 -146 53q-54 54 -54 125
q0 59 34 104q20 25 66 52zM351 559q-90 0 -113 -10q-44 -16 -44 -76q0 -65 52 -77q27 -5 107 -5q100 0 120 10q39 17 39 72q0 66 -59 80q-24 6 -102 6zM352 281q-90 0 -115 -11q-42 -18 -42 -77q0 -67 52 -80q25 -5 105 -5q99 0 119 10q38 18 38 74q0 68 -57 83
q-24 6 -100 6z" />
    <glyph glyph-name="nine" unicode="9" horiz-adv-x="691" 
d="M499 274h-225q-79 0 -115.5 8t-62.5 31q-61 52 -61 147q0 117 104 177q61 34 183 34q90 0 145 -16t95 -53q45 -43 70.5 -114.5t25.5 -155.5q0 -89 -30 -165.5t-79 -114.5q-39 -29 -89.5 -40.5t-142.5 -11.5h-246v118h203q139 -1 176 28q49 36 49 128zM299 392h200
q-1 75 -29 116q-19 28 -51.5 39.5t-95.5 11.5q-75 0 -100 -18q-32 -21 -32 -68q0 -45 34 -67q19 -14 74 -14z" />
    <glyph glyph-name="colon" unicode=":" horiz-adv-x="224" 
d="M172 130v-130h-121v130h121zM172 364v-130h-121v130h121z" />
    <glyph glyph-name="semicolon" unicode=";" horiz-adv-x="234" 
d="M182 364v-130h-121v130h121zM182 130v-116l-77 -151h-61l61 137h-44v130h121z" />
    <glyph glyph-name="less" unicode="&#x3c;" 
d="M466 631v-154l-270 -140l270 -141v-152l-433 229v129z" />
    <glyph glyph-name="equal" unicode="=" horiz-adv-x="559" 
d="M37 491h486v-109h-486v109zM37 299h486v-109h-486v109z" />
    <glyph glyph-name="greater" unicode="&#x3e;" 
d="M33 44v153l269 141l-269 140v153l433 -229v-130z" />
    <glyph glyph-name="question" unicode="?" horiz-adv-x="681" 
d="M59 667h349q76 0 108 -6.5t62 -28.5q70 -51 70 -164t-73 -161q-44 -31 -146 -31h-88q-75 0 -97 -17q-23 -19 -23 -62v-34h-142v48q0 101 54 146q46 37 165 37h81q65 0 87 15q26 18 26 65q0 56 -43 69q-18 6 -90 6h-300v118zM221 113v-113h-142v113h142z" />
    <glyph glyph-name="at" unicode="@" horiz-adv-x="793" 
d="M588 73v-73h-226q-86 0 -140 15.5t-91 50.5q-45 43 -71.5 115.5t-26.5 151.5q0 91 33.5 169t88.5 118q80 57 251 57q175 0 256 -62q45 -34 71 -90.5t26 -120.5q0 -54 -20 -106.5t-54 -87.5q-37 -36 -101 -58h-213q-59 0 -79.5 4t-42.5 21q-46 34 -46 106q0 62 21.5 113
t58.5 78q54 40 149 40h149l-41 -294h42q33 25 53 74t20 107q0 56 -20.5 101.5t-57.5 67.5q-57 34 -171 34q-147 0 -202 -62q-28 -32 -45 -89.5t-17 -119.5q0 -72 22 -133.5t59 -90.5q26 -20 63.5 -28t106.5 -8h195zM458 433h-16q-70 0 -95 -34q-27 -37 -27 -95q0 -37 21 -54
t68 -17h20z" />
    <glyph glyph-name="A" unicode="A" horiz-adv-x="723" 
d="M4 0l276 667h163l276 -667h-166l-64 155h-254l-64 -155h-167zM362 507l-95 -233h190z" />
    <glyph glyph-name="B" unicode="B" horiz-adv-x="699" 
d="M68 0v667h377q92 0 134 -23q37 -20 60 -62t23 -90q0 -52 -27.5 -96.5t-69.5 -62.5q97 -44 97 -156q0 -59 -25.5 -101.5t-72.5 -60.5q-39 -15 -127 -15h-369zM210 393h193q50 0 71 16q31 24 31 66q0 40 -29 59q-22 14 -70 14h-196v-155zM210 119h193q51 0 72 16
q31 24 31 66q0 40 -29 59q-22 14 -71 14h-196v-155z" />
    <glyph glyph-name="C" unicode="C" horiz-adv-x="607" 
d="M574 119v-119h-232q-86 0 -134.5 14.5t-87.5 51.5q-88 85 -88 266q0 113 38.5 192.5t108.5 112.5q63 30 169 30h226v-119h-209q-99 0 -142 -54q-34 -42 -34 -149q0 -152 61 -196q39 -30 120 -30h204z" />
    <glyph glyph-name="D" unicode="D" horiz-adv-x="717" 
d="M68 667h283q103 0 166 -21.5t102 -70.5q30 -36 48 -102.5t18 -140.5q0 -96 -28 -177q-36 -108 -142 -140q-46 -15 -164 -15h-283v667zM210 548v-429h141q96 0 132 44q46 58 46 170q0 61 -16.5 111t-44.5 73q-38 31 -117 31h-141z" />
    <glyph glyph-name="E" unicode="E" horiz-adv-x="612" 
d="M568 667v-119h-185q-72 0 -105.5 -10t-55.5 -39q-15 -20 -20 -39t-9 -69h375v-119h-375q7 -85 50.5 -119t145.5 -34h179v-119h-185q-107 0 -165 16.5t-98 58.5q-88 91 -88 263q0 179 113 275q35 30 75.5 42t107.5 12h240z" />
    <glyph glyph-name="F" unicode="F" horiz-adv-x="636" 
d="M600 394v-119h-397v-275h-142v348q0 135 25 190q44 95 159 119q46 10 125 10h230v-119h-212q-92 0 -131 -17q-54 -25 -54 -101v-36h397z" />
    <glyph glyph-name="G" unicode="G" horiz-adv-x="692" 
d="M312 396h328v-396h-298q-78 0 -123 11.5t-82 40.5q-105 82 -105 279q0 195 104 279q72 57 212 57h292v-119h-275q-95 0 -136 -47t-41 -157q0 -134 48 -185q39 -40 134 -40h128v158h-186v119z" />
    <glyph glyph-name="H" unicode="H" horiz-adv-x="677" 
d="M609 667v-667h-142v275h-257v-275h-142v667h142v-273h257v273h142z" />
    <glyph glyph-name="I" unicode="I" horiz-adv-x="278" 
d="M68 0v667h142v-667h-142z" />
    <glyph glyph-name="J" unicode="J" horiz-adv-x="533" 
d="M15 0v119h136q67 0 97 5t46 19q20 18 28 50t8 100v374h142v-374q5 -167 -65 -233.5t-241 -59.5h-151z" />
    <glyph glyph-name="K" unicode="K" horiz-adv-x="659" 
d="M210 667v-667h-142v667h142zM215 338l255 329h186l-278 -329l265 -338h-187z" />
    <glyph glyph-name="L" unicode="L" horiz-adv-x="533" 
d="M61 667h142v-374q4 -86 8.5 -107t24.5 -38t49.5 -23t96.5 -6h136v-119h-151q-108 0 -150 11q-51 14 -87.5 47t-52.5 81t-16 154v374z" />
    <glyph glyph-name="M" unicode="M" horiz-adv-x="890" 
d="M274 667l166 -521l175 521h207v-667h-135v501l-175 -501h-146l-165 501v-501h-135v667h208z" />
    <glyph glyph-name="N" unicode="N" horiz-adv-x="718" 
d="M203 489v-489h-135v667h181l266 -497v497h135v-667h-174z" />
    <glyph glyph-name="O" unicode="O" horiz-adv-x="723" 
d="M364 672q86 0 155 -27t106 -76q65 -84 65 -242q0 -163 -80.5 -247t-238.5 -84q-96 0 -169 30.5t-112 86.5q-58 82 -58 218q0 196 101 276q80 65 231 65zM360 559q-99 0 -141 -67q-31 -49 -31 -157q0 -117 42 -172t132 -55q89 0 130.5 55t41.5 173q0 115 -42 169t-132 54z
" />
    <glyph glyph-name="P" unicode="P" horiz-adv-x="686" 
d="M210 233v-233h-142v667h333q88 0 128.5 -12t73.5 -49q60 -65 60 -156q0 -111 -74 -174q-29 -25 -61.5 -34t-89.5 -9h-228zM210 352h193q55 0 75 19q29 24 29 84q0 70 -49 87q-16 6 -52 6h-196v-196z" />
    <glyph glyph-name="Q" unicode="Q" horiz-adv-x="757" 
d="M730 119v-119h-250q-128 0 -156 2q-87 7 -142 33t-92 78q-58 84 -58 218q0 196 101 276q79 65 228 65q89 0 158.5 -27t106.5 -76q28 -37 46.5 -101.5t18.5 -128.5q0 -129 -75 -220h114zM361 560q-172 0 -172 -218q0 -99 30 -156q38 -74 144 -74q88 0 129.5 55t41.5 174
q0 97 -39 156q-42 63 -134 63z" />
    <glyph glyph-name="R" unicode="R" horiz-adv-x="715" 
d="M210 253v-253h-142v667h326q144 0 200 -39q74 -50 74 -147q0 -151 -127 -195q114 -31 121 -185q6 -73 16 -101h-159q-5 16 -8 36q-5 43 -6 59q-10 91 -48.5 124.5t-132.5 33.5h-114zM210 372h199q55 0 78.5 21.5t23.5 70.5q0 62 -49 79q-18 5 -53 5h-199v-176z" />
    <glyph glyph-name="S" unicode="S" horiz-adv-x="695" 
d="M66 0v119h304q74 0 99 16q33 20 33 61q0 50 -43 71q-21 12 -72 12h-123q-116 0 -167 44q-63 55 -63 146q0 65 32 115.5t84 68.5q38 14 143 14h330v-119h-298q-68 -1 -89 -6t-33 -23.5t-12 -44.5q0 -48 38 -65q24 -11 84 -11h107q74 0 117.5 -12.5t72.5 -42.5
q22 -22 36 -62.5t14 -83.5q0 -54 -23 -100t-62 -70q-25 -16 -62 -21.5t-112 -5.5h-335z" />
    <glyph glyph-name="T" unicode="T" horiz-adv-x="585" 
d="M218 548h-213v119h575v-119h-220v-548h-142v548z" />
    <glyph glyph-name="U" unicode="U" horiz-adv-x="703" 
d="M203 667v-400q0 -88 37 -122q43 -38 115 -38q49 0 85 17t49 47q12 29 12 96v400h142v-393q0 -154 -72 -214q-78 -65 -219 -65q-158 0 -230 72q-35 35 -48 78t-13 119v403h142z" />
    <glyph glyph-name="V" unicode="V" horiz-adv-x="719" 
d="M717 667l-292 -667h-142l-281 667h160l196 -502l199 502h160z" />
    <glyph glyph-name="W" unicode="W" horiz-adv-x="1058" 
d="M160 667l150 -502l139 502h159l140 -502l150 502h146l-216 -667h-161l-138 482l-139 -482h-161l-216 667h147z" />
    <glyph glyph-name="X" unicode="X" horiz-adv-x="637" 
d="M232 337l-219 330h174l131 -219l142 219h172l-226 -330l226 -337h-167l-147 229l-144 -229h-169z" />
    <glyph glyph-name="Y" unicode="Y" horiz-adv-x="654" 
d="M250 292l-247 375h167l153 -260l161 260h168l-260 -380v-287h-142v292z" />
    <glyph glyph-name="Z" unicode="Z" horiz-adv-x="654" 
d="M458 548h-421v119h580v-123l-406 -425h406v-119h-580v116z" />
    <glyph glyph-name="bracketleft" unicode="[" horiz-adv-x="353" 
d="M319 758v-107h-34q-57 0 -71 -12.5t-14 -64.5v-482q0 -52 14 -64.5t71 -12.5h34v-107h-93q-55 0 -81 6t-47 23q-21 18 -29 43t-8 74v557q0 49 8 74.5t29 43.5q21 17 47 23t81 6h93z" />
    <glyph glyph-name="backslash" unicode="\" horiz-adv-x="533" 
d="M450 -92l-491 850h125l491 -850h-125z" />
    <glyph glyph-name="bracketright" unicode="]" horiz-adv-x="353" 
d="M34 758h93q55 0 81 -6t47 -23q21 -18 29 -43.5t8 -74.5v-557q0 -49 -8 -74t-29 -43q-21 -17 -47 -23t-81 -6h-93v107h34q57 0 71 12.5t14 64.5v482q0 52 -14 64.5t-71 12.5h-34v107z" />
    <glyph glyph-name="asciicircum" unicode="^" 
d="M151 349h-137l150 322h172l150 -322h-137l-99 218z" />
    <glyph glyph-name="underscore" unicode="_" 
d="M0 -39h500v-109h-500v109z" />
    <glyph glyph-name="grave" unicode="`" 
d="M97 675h118l92 -130h-86z" />
    <glyph glyph-name="a" unicode="a" horiz-adv-x="595" 
d="M238 296h164q0 52 -20.5 69.5t-81.5 17.5h-226v104h226q93 0 131 -12q68 -22 94 -102q11 -34 11 -99v-274h-282q-78 0 -107.5 5t-51.5 21q-56 40 -56 118q0 51 24.5 89.5t64.5 51.5q35 11 110 11zM402 192h-155q-32 0 -43 -3q-29 -8 -29 -42q0 -23 16.5 -33t55.5 -10h155
v88z" />
    <glyph glyph-name="b" unicode="b" horiz-adv-x="597" 
d="M200 487h119q129 0 192 -76q52 -61 52 -161q0 -147 -107 -214q-34 -21 -70 -28.5t-102 -7.5h-218v667h134v-180zM200 383v-279h99q59 0 93 38t34 104q0 137 -127 137h-99z" />
    <glyph glyph-name="c" unicode="c" horiz-adv-x="510" 
d="M472 487v-104h-160q-75 0 -108.5 -33t-33.5 -107q0 -81 51 -115q35 -24 106 -24h145v-104h-183q-73 0 -116.5 15t-76.5 52q-63 71 -63 178q0 130 75 194q56 48 181 48h183z" />
    <glyph glyph-name="d" unicode="d" horiz-adv-x="592" 
d="M391 487v180h134v-667h-231q-72 0 -114 13.5t-78 48.5q-69 67 -69 185q0 129 88 198q54 42 144 42h126zM391 104v279h-97q-59 0 -92 -36t-33 -100q0 -67 33.5 -105t91.5 -38h97z" />
    <glyph glyph-name="e" unicode="e" horiz-adv-x="508" 
d="M463 296v-104h-282q4 -50 36 -71q25 -17 82 -17h164v-104h-178q-58 0 -94.5 10.5t-69.5 35.5q-88 67 -88 204q0 64 25.5 118.5t69.5 83.5q52 35 147 35h188v-104h-178q-55 0 -77.5 -18.5t-26.5 -68.5h282z" />
    <glyph glyph-name="f" unicode="f" horiz-adv-x="380" 
d="M106 383h-88v104h88v29q0 79 33.5 115t107.5 36h118v-104h-68q-31 0 -44 -12.5t-13 -41.5v-22h125v-104h-125v-383h-134v383z" />
    <glyph glyph-name="g" unicode="g" horiz-adv-x="599" 
d="M533 487v-483q0 -81 -37 -128q-23 -27 -56 -38t-94 -11h-267v104h249q44 0 57.5 13t13.5 56h-123q-59 0 -97 12.5t-70 41.5q-73 68 -73 190q0 139 89 201q57 42 158 42h250zM399 383h-111q-115 0 -115 -140q0 -139 122 -139h104v279z" />
    <glyph glyph-name="h" unicode="h" horiz-adv-x="597" 
d="M200 667v-180h137q61 0 95.5 -9.5t58.5 -33.5q46 -44 46 -140v-304h-134v277q0 65 -18.5 85.5t-76.5 20.5h-108v-383h-134v667h134z" />
    <glyph glyph-name="i" unicode="i" horiz-adv-x="266" 
d="M66 487h134v-487h-134v487zM66 537v130h134v-130h-134z" />
    <glyph glyph-name="j" unicode="j" horiz-adv-x="298" 
d="M232 487v-448q0 -131 -61 -176q-49 -36 -136 -36h-59v102h34q56 0 74 22q14 17 14 78v458h134zM98 541v126h134v-126h-134z" />
    <glyph glyph-name="k" unicode="k" horiz-adv-x="544" 
d="M200 667v-373l179 193h150l-190 -193h37q69 0 98 -44q25 -37 25 -142v-108h-134v114q0 45 -15.5 61t-58.5 16h-91v-191h-134v667h134z" />
    <glyph glyph-name="l" unicode="l" horiz-adv-x="266" 
d="M200 0h-134v667h134v-667z" />
    <glyph glyph-name="m" unicode="m" horiz-adv-x="822" 
d="M66 487h492q67 0 102.5 -10t58.5 -35q44 -49 44 -132v-310h-134v289q0 36 -3.5 50.5t-14.5 24.5q-19 19 -62 19h-71v-383h-134v383h-144v-383h-134v487z" />
    <glyph glyph-name="n" unicode="n" horiz-adv-x="578" 
d="M66 487h258q58 0 88 -8t56 -31q51 -48 51 -148v-300h-134v315q0 37 -16 52.5t-53 15.5h-116v-383h-134v487z" />
    <glyph glyph-name="o" unicode="o" horiz-adv-x="582" 
d="M293 494q135 0 199 -82q56 -71 56 -174q0 -113 -70 -179t-190 -66t-187.5 66.5t-67.5 185.5q0 115 70.5 182t189.5 67zM289 391q-119 0 -119 -150q0 -145 122 -145q119 0 119 149q0 146 -122 146z" />
    <glyph glyph-name="p" unicode="p" horiz-adv-x="590" 
d="M66 487h234q69 0 104 -8.5t66 -33.5q87 -67 87 -209q0 -107 -64 -173q-62 -63 -175 -63h-118v-183h-134v670zM200 383v-279h82q138 0 138 142q0 66 -33 101.5t-95 35.5h-92z" />
    <glyph glyph-name="q" unicode="q" horiz-adv-x="596" 
d="M530 487v-670h-134v183h-129q-111 0 -172 65q-62 68 -62 173q0 139 87 207q31 25 66.5 33.5t103.5 8.5h240zM396 383h-98q-62 0 -95 -35.5t-33 -103.5t34 -104t99 -36h93v279z" />
    <glyph glyph-name="r" unicode="r" horiz-adv-x="468" 
d="M66 487h198q62 0 94.5 -8t55.5 -29q22 -20 31 -49.5t9 -85.5v-48h-129v26q0 52 -18.5 71t-67.5 19h-39v-383h-134v487z" />
    <glyph glyph-name="s" unicode="s" horiz-adv-x="549" 
d="M489 487v-104h-238q-45 0 -59.5 -8.5t-14.5 -34.5q0 -27 23 -41q13 -7 64 -7h79q80 0 124 -36t44 -103q0 -45 -22.5 -85t-56.5 -55q-27 -13 -109 -13h-277v104h238q41 0 63 2q33 5 33 39q0 33 -25 42q-11 6 -56 6h-82q-85 0 -123 30q-55 42 -55 122q0 76 56 119
q31 23 108 23h286z" />
    <glyph glyph-name="t" unicode="t" horiz-adv-x="385" 
d="M101 487v180h134v-180h124v-104h-124v-177q0 -62 11 -78q16 -24 60 -24h53v-104h-97q-81 0 -118 37q-25 23 -34 54.5t-9 91.5v200h-85v104h85z" />
    <glyph glyph-name="u" unicode="u" horiz-adv-x="584" 
d="M383 104v383h134v-487h-263q-58 0 -88 8t-56 31q-51 48 -51 148v300h134v-313q0 -33 17 -51.5t47 -18.5h126z" />
    <glyph glyph-name="v" unicode="v" horiz-adv-x="561" 
d="M277 152l136 335h142l-210 -487h-144l-194 487h146z" />
    <glyph glyph-name="w" unicode="w" horiz-adv-x="822" 
d="M344 104v383h134v-383h144v383h134v-487h-492q-67 0 -102.5 10t-58.5 35q-44 49 -44 132v310h134v-289q0 -36 3.5 -50.5t14.5 -24.5q19 -19 62 -19h71z" />
    <glyph glyph-name="x" unicode="x" horiz-adv-x="525" 
d="M187 241l-175 246h149l103 -144l100 144h157l-182 -246l182 -241h-157l-100 139l-103 -139h-157z" />
    <glyph glyph-name="y" unicode="y" horiz-adv-x="574" 
d="M373 104v383h134v-477q0 -115 -78 -159q-44 -24 -131 -24h-239v104h239q32 0 50 7q21 8 24 44l1 18h-119q-57 0 -91 11t-60 39q-26 29 -35 62t-9 103v272h134v-259q0 -76 13.5 -100t56.5 -24h110z" />
    <glyph glyph-name="z" unicode="z" horiz-adv-x="527" 
d="M312 383h-281v104h459v-101l-281 -282h281v-104h-459v101z" />
    <glyph glyph-name="braceleft" unicode="{" horiz-adv-x="380" 
d="M227 555v-98q0 -50 -13 -77t-47 -47q33 -19 46.5 -46.5t13.5 -77.5v-98q0 -52 1.5 -62.5t9.5 -19.5q11 -14 49 -14h59v-107h-68q-69 0 -100.5 7t-54.5 29q-35 33 -35 109v144q0 44 -10.5 64t-37.5 26v92q27 6 37.5 26t10.5 64v144q0 85 47 119q23 15 49.5 20.5t77.5 5.5
h84v-107h-59q-39 0 -50 -15q-7 -9 -8.5 -19.5t-1.5 -61.5z" />
    <glyph glyph-name="bar" unicode="|" 
d="M172 667h155v-834h-155v834z" />
    <glyph glyph-name="braceright" unicode="}" horiz-adv-x="380" 
d="M153 111v98q0 50 13.5 77.5t46.5 46.5q-34 20 -47 47t-13 77v98q0 51 -1.5 61.5t-8.5 19.5q-11 15 -50 15h-59v107h84q57 0 87 -7.5t52 -28.5q35 -33 35 -109v-144q0 -44 10.5 -64t37.5 -26v-92q-27 -6 -37.5 -26t-10.5 -64v-144q0 -86 -47 -118q-23 -16 -51.5 -21.5
t-91.5 -5.5h-68v107h59q38 0 49 14q8 9 9.5 19.5t1.5 62.5z" />
    <glyph glyph-name="asciitilde" unicode="~" horiz-adv-x="667" 
d="M168 550l-75 63q55 138 150 138q32 0 112 -33q58 -25 76 -25q38 0 71 60l75 -62q-31 -74 -66.5 -105t-90.5 -31q-21 0 -39 5.5t-72 28.5q-50 22 -73 22q-36 0 -68 -61z" />
    <glyph glyph-name="registered" unicode="&#xa0;" horiz-adv-x="769" 
d="M390 677q140 0 240.5 -101.5t100.5 -242.5q0 -142 -101 -242.5t-244 -100.5t-245 100.5t-102 242.5q0 145 102 244.5t249 99.5zM383 612q-112 0 -192.5 -82t-80.5 -196q0 -115 81 -197t194 -82q114 0 194.5 81.5t80.5 196.5q0 117 -80.5 198t-196.5 81zM312 288v-142h-96
v380h175q92 0 128 -22q48 -30 48 -85q0 -84 -72 -109q65 -20 68 -104q4 -42 12 -60h-108q-1 7 -3 10l-4 20l-3 26q-5 49 -28.5 67.5t-81.5 18.5h-35zM312 362h88q34 0 48 11t14 37q0 24 -14 34t-48 10h-88v-92z" />
    <glyph glyph-name="exclamdown" unicode="&#xa1;" horiz-adv-x="274" 
d="M208 0h-142v503h142v-503zM208 554h-142v113h142v-113z" />
    <glyph glyph-name="cent" unicode="&#xa2;" horiz-adv-x="511" 
d="M366 449v-278h106v-104h-106v-98h-76v98q-68 0 -109 12t-72 41q-76 71 -76 191q0 77 29 134.5t81 83.5q48 24 147 24v98h76v-98h106v-104h-106zM290 172v276q-65 -5 -92.5 -37t-27.5 -101q0 -127 120 -138z" />
    <glyph glyph-name="sterling" unicode="&#xa3;" horiz-adv-x="642" 
d="M572 667v-118h-188q-50 0 -70 -3.5t-34 -15.5q-31 -26 -31 -106v-53h220v-83h-220v-170h366v-118h-562v118h54v170h-54v83h54v13q0 96 13 144.5t47 80.5q49 45 121 54q26 4 96 4h188z" />
    <glyph glyph-name="currency" unicode="&#xa4;" horiz-adv-x="649" 
d="M464 561l79 79l79 -79l-78 -78q38 -64 38 -143q0 -74 -35 -138l79 -79l-79 -80l-79 79q-63 -32 -144 -32q-80 0 -143 32l-79 -79l-79 79l79 80q-35 63 -35 138q0 80 37 141l-81 80l80 80l81 -81q62 31 140 31q77 0 140 -30zM323 489q-119 0 -119 -148q0 -149 121 -149
q120 0 120 149q0 148 -122 148z" />
    <glyph glyph-name="yen" unicode="&#xa5;" horiz-adv-x="629" 
d="M217 323l-214 344h166l140 -261l147 261h169l-224 -344h134v-80h-157v-53h137v-80h-137v-110h-142v110h-137v80h137v53h-157v80h138z" />
    <glyph glyph-name="logicalnot" unicode="&#xa6;" 
d="M315 0v156h-282v135h433v-291h-151z" />
    <glyph glyph-name="section" unicode="&#xa7;" horiz-adv-x="624" 
d="M346 85h-110q-108 0 -150 36q-49 43 -49 127q0 82 52 125q-52 44 -52 127q0 50 23.5 91.5t62.5 58.5q35 17 142 17h295v-104h-267q-66 0 -88 -14q-29 -20 -29 -53q0 -69 102 -69h108q58 0 89 -8.5t58 -31.5q55 -49 55 -128q0 -67 -48 -121q48 -45 48 -118
q0 -57 -28.5 -102t-74.5 -62q-34 -11 -124 -11h-291v104h262q61 1 78 6q40 10 40 62q0 44 -32 58q-21 10 -72 10zM345 323h-53q-64 0 -84 -10q-32 -16 -32 -57q0 -35 24 -51t77 -16h68q43 0 63 5q41 11 41 61q0 37 -23.5 52.5t-80.5 15.5z" />
    <glyph glyph-name="dieresis" unicode="&#xa8;" 
d="M396 660v-110h-107v110h107zM210 660v-110h-107v110h107z" />
    <glyph glyph-name="threequarters" unicode="&#xa9;" horiz-adv-x="1107" 
d="M61 267v76h184q34 0 48.5 10t14.5 33q0 27 -19 38q-12 6 -44 6h-144v77h144q36 0 49.5 9t13.5 32q0 25 -18 36q-10 7 -45 7h-184v76h199q70 0 95 -13q27 -13 42.5 -39t15.5 -58q0 -58 -53 -88q53 -35 53 -95q0 -58 -47 -86q-36 -21 -117 -21h-188zM689 671h96l-374 -675
h-96zM617 68v88l239 244h122v-256h55v-76h-55v-68h-96v68h-265zM728 144h154v157z" />
    <glyph glyph-name="ordfeminine" unicode="&#xaa;" horiz-adv-x="395" 
d="M160 448h100q0 26 -12.5 35t-48.5 9h-146v68h146q57 0 80.5 -6.5t42.5 -26.5q29 -30 29 -95v-165h-181q-49 0 -67.5 2.5t-33.5 12.5q-38 25 -38 73q0 32 16 55.5t43 31.5q21 6 70 6zM260 380h-94q-20 0 -26 -1q-16 -5 -16 -22q0 -22 42 -22h94v45z" />
    <glyph glyph-name="guillemotleft" unicode="&#xab;" horiz-adv-x="401" 
d="M175 408v-119l-70 -49l70 -47v-119l-133 105v121zM351 408v-119l-70 -49l70 -47v-119l-133 105v121z" />
    <glyph glyph-name="nbspace" unicode="&#xac;" horiz-adv-x="250" 
 />
    <glyph glyph-name="middot" unicode="&#xad;" horiz-adv-x="224" 
d="M172 398v-130h-121v130h121z" />
    <glyph glyph-name="copyright" unicode="&#xae;" horiz-adv-x="769" 
d="M390 677q140 0 240.5 -101.5t100.5 -242.5q0 -142 -101 -242.5t-244 -100.5t-245 100.5t-102 242.5q0 145 102 244.5t249 99.5zM383 612q-112 0 -192.5 -82t-80.5 -196q0 -115 81 -197t194 -82q114 0 194.5 81.5t80.5 196.5q0 117 -80.5 198t-196.5 81zM543 217v-73h-147
q-54 0 -84.5 8t-54.5 29q-57 48 -57 152q0 64 24.5 109.5t68.5 64.5q41 17 107 17h143v-73h-133q-57 0 -81.5 -25.5t-24.5 -84.5q0 -69 24 -96.5t85 -27.5h130z" />
    <glyph glyph-name="macron" unicode="&#xaf;" 
d="M409 633v-67h-317v67h317z" />
    <glyph glyph-name="sfthyphen" unicode="&#xb0;" horiz-adv-x="233" 
d="M233 318v-120h-233v120h233z" />
    <glyph glyph-name="trademark" unicode="&#xb1;" horiz-adv-x="898" 
d="M131 595h-128v72h351v-72h-131v-302h-92v302zM527 667l98 -280l102 280h130v-374h-88v261l-99 -261h-92l-93 260v-260h-88v374h130z" />
    <glyph glyph-name="twosuperior" unicode="&#xb2;" horiz-adv-x="474" 
d="M147 343h274v-76h-370v108q0 69 37 102q27 27 102 27h68q69 0 69 42q0 45 -69 45h-200v76h219q85 0 117 -28q38 -32 38 -90q0 -79 -53 -105q-34 -16 -96 -16h-59q-47 0 -62 -10.5t-15 -42.5v-32z" />
    <glyph glyph-name="threesuperior" unicode="&#xb3;" horiz-adv-x="474" 
d="M61 267v76h184q34 0 48.5 10t14.5 33q0 27 -19 38q-12 6 -44 6h-144v77h144q36 0 49.5 9t13.5 32q0 25 -18 36q-10 7 -45 7h-184v76h199q70 0 95 -13q27 -13 42.5 -39t15.5 -58q0 -58 -53 -88q53 -35 53 -95q0 -58 -47 -86q-36 -21 -117 -21h-188z" />
    <glyph glyph-name="acute" unicode="&#xb4;" 
d="M403 675l-124 -130h-86l92 130h118z" />
    <glyph glyph-name="brokenbar" unicode="&#xb5;" 
d="M172 667h155v-353h-155v353zM172 153h155v-320h-155v320z" />
    <glyph glyph-name="paragraph" unicode="&#xb6;" horiz-adv-x="643" 
d="M248 -155v388q-80 1 -123 22q-45 22 -72.5 76t-27.5 119q0 59 27 111t72 78q48 28 150 28h361v-117h-60v-705h-118v705h-165q-51 0 -71 -10q-41 -22 -41 -86q0 -53 25 -77.5t80 -24.5h81v-507h-118z" />
    <glyph glyph-name="periodcentered" unicode="&#xb7;" horiz-adv-x="224" 
d="M172 398v-130h-121v130h121z" />
    <glyph glyph-name="cedilla" unicode="&#xb8;" 
d="M201 0h51v-45h10q44 0 63 -13q26 -18 26 -60q0 -51 -40 -65q-18 -6 -56 -6h-77v49h69q30 0 30 27q0 17 -7 22.5t-27 5.5h-42v85z" />
    <glyph glyph-name="onesuperior" unicode="&#xb9;" horiz-adv-x="474" 
d="M285 267h-96v400h96v-400z" />
    <glyph glyph-name="ordmasculine" unicode="&#xba;" horiz-adv-x="387" 
d="M195 565q77 0 120.5 -41t43.5 -113q0 -68 -45 -108t-122 -40t-120.5 40.5t-43.5 111.5q0 69 45 109.5t122 40.5zM193 498q-72 0 -72 -85q0 -83 73 -83q72 0 72 85q0 83 -73 83z" />
    <glyph glyph-name="guillemotright" unicode="&#xbb;" horiz-adv-x="401" 
d="M50 408l133 -108v-121l-133 -105v119l70 47l-70 49v119zM226 408l133 -108v-121l-133 -105v119l70 47l-70 49v119z" />
    <glyph glyph-name="onehalf" unicode="&#xbc;" horiz-adv-x="1107" 
d="M325 267h-96v400h96v-400zM689 671h96l-374 -675h-96zM793 76h274v-76h-370v108q0 69 37 102q27 27 102 27h68q69 0 69 42q0 45 -69 45h-200v76h219q85 0 117 -28q38 -32 38 -90q0 -78 -53 -105q-34 -16 -96 -16h-59q-47 0 -62 -10.5t-15 -42.5v-32z" />
    <glyph glyph-name="plusminus" unicode="&#xbd;" horiz-adv-x="559" 
d="M37 460h187v178h113v-178h186v-109h-186v-178h-113v178h-187v109zM37 137h486v-109h-486v109z" />
    <glyph glyph-name="onequarter" unicode="&#xbe;" horiz-adv-x="1107" 
d="M325 267h-96v400h96v-400zM689 671h96l-374 -675h-96zM623 68v88l239 244h123v-256h55v-76h-55v-68h-96v68h-266zM735 144h154v157z" />
    <glyph glyph-name="questiondown" unicode="&#xbf;" horiz-adv-x="681" 
d="M622 0h-349q-76 0 -108 6.5t-62 28.5q-70 51 -70 164t73 161q44 31 146 31h88q75 0 97 17q23 19 23 62v34h142v-47q0 -102 -54 -147q-46 -37 -165 -37h-81q-65 0 -87 -15q-26 -18 -26 -65q0 -56 43 -69q18 -6 90 -6h300v-118zM460 554v113h142v-113h-142z" />
    <glyph glyph-name="Agrave" unicode="&#xc0;" horiz-adv-x="723" 
d="M4 0l276 667h163l276 -667h-166l-64 155h-254l-64 -155h-167zM362 507l-95 -233h190zM202 840h122l91 -123h-87z" />
    <glyph glyph-name="Aacute" unicode="&#xc1;" horiz-adv-x="723" 
d="M4 0l276 667h163l276 -667h-166l-64 155h-254l-64 -155h-167zM362 507l-95 -233h190zM523 840l-125 -123h-88l92 123h121z" />
    <glyph glyph-name="Acircumflex" unicode="&#xc2;" horiz-adv-x="723" 
d="M4 0l276 667h163l276 -667h-166l-64 155h-254l-64 -155h-167zM362 507l-95 -233h190zM361 788l-62 -71h-101l108 123h110l109 -123h-101z" />
    <glyph glyph-name="Atilde" unicode="&#xc3;" horiz-adv-x="723" 
d="M4 0l276 667h163l276 -667h-166l-64 155h-254l-64 -155h-167zM362 507l-95 -233h190zM465 828h62q-12 -108 -93 -108q-34 0 -113 31q-15 5 -26 5q-30 0 -36 -34h-62q15 108 94 108q24 0 84 -21q41 -14 55 -14q28 0 35 33z" />
    <glyph glyph-name="Adieresis" unicode="&#xc4;" horiz-adv-x="723" 
d="M4 0l276 667h163l276 -667h-166l-64 155h-254l-64 -155h-167zM362 507l-95 -233h190zM513 830v-110h-108v110h108zM318 830v-110h-108v110h108z" />
    <glyph glyph-name="Aring" unicode="&#xc5;" horiz-adv-x="723" 
d="M4 0l276 667h163l276 -667h-166l-64 155h-254l-64 -155h-167zM362 507l-95 -233h190zM363 898q38 0 66 -28.5t28 -66.5q0 -40 -28 -68t-67 -28q-40 0 -68 28t-28 68t28 67.5t69 27.5zM361 841q-16 0 -27 -11t-11 -27t11 -27.5t27 -11.5q17 0 28 11t11 28q0 16 -11.5 27
t-27.5 11z" />
    <glyph glyph-name="AE" unicode="&#xc6;" horiz-adv-x="1031" 
d="M553 0l-65 155h-253l-64 -155h-167l276 667h163l57 -137q33 74 90 106q55 31 157 31h240v-119h-185q-72 0 -105.5 -10t-55.5 -39q-15 -20 -20 -39t-9 -69h375v-119h-375q7 -85 50.5 -119t145.5 -34h179v-119h-434zM362 507l-95 -233h190z" />
    <glyph glyph-name="Ccedilla" unicode="&#xc7;" horiz-adv-x="607" 
d="M385 0v-41h11q51 0 74 -19t23 -61q0 -56 -43 -72q-23 -7 -61 -7h-85v54h71q23 0 32 6.5t9 22.5q0 17 -8.5 23.5t-31.5 6.5h-47v87q-75 0 -123 15.5t-86 50.5q-88 85 -88 266q0 113 38.5 192.5t108.5 112.5q63 30 169 30h226v-119h-209q-99 0 -142 -54q-34 -42 -34 -149
q0 -152 61 -196q39 -30 120 -30h204v-119h-189z" />
    <glyph glyph-name="Egrave" unicode="&#xc8;" horiz-adv-x="612" 
d="M568 667v-119h-185q-72 0 -105.5 -10t-55.5 -39q-15 -20 -20 -39t-9 -69h375v-119h-375q7 -85 50.5 -119t145.5 -34h179v-119h-185q-107 0 -165 16.5t-98 58.5q-88 91 -88 263q0 179 113 275q35 30 75.5 42t107.5 12h240zM230 840h122l91 -123h-87z" />
    <glyph glyph-name="Eacute" unicode="&#xc9;" horiz-adv-x="612" 
d="M568 667v-119h-185q-72 0 -105.5 -10t-55.5 -39q-15 -20 -20 -39t-9 -69h375v-119h-375q7 -85 50.5 -119t145.5 -34h179v-119h-185q-107 0 -165 16.5t-98 58.5q-88 91 -88 263q0 179 113 275q35 30 75.5 42t107.5 12h240zM516 840l-125 -123h-88l92 123h121z" />
    <glyph glyph-name="Ecircumflex" unicode="&#xca;" horiz-adv-x="612" 
d="M568 667v-119h-185q-72 0 -105.5 -10t-55.5 -39q-15 -20 -20 -39t-9 -69h375v-119h-375q7 -85 50.5 -119t145.5 -34h179v-119h-185q-107 0 -165 16.5t-98 58.5q-88 91 -88 263q0 179 113 275q35 30 75.5 42t107.5 12h240zM366 788l-62 -71h-101l108 123h110l109 -123
h-101z" />
    <glyph glyph-name="Edieresis" unicode="&#xcb;" horiz-adv-x="612" 
d="M568 667v-119h-185q-72 0 -105.5 -10t-55.5 -39q-15 -20 -20 -39t-9 -69h375v-119h-375q7 -85 50.5 -119t145.5 -34h179v-119h-185q-107 0 -165 16.5t-98 58.5q-88 91 -88 263q0 179 113 275q35 30 75.5 42t107.5 12h240zM520 830v-110h-108v110h108zM325 830v-110h-108
v110h108z" />
    <glyph glyph-name="Igrave" unicode="&#xcc;" horiz-adv-x="278" 
d="M68 0v667h142v-667h-142zM-2 840h115l77 -123h-86z" />
    <glyph glyph-name="Iacute" unicode="&#xcd;" horiz-adv-x="278" 
d="M68 0v667h142v-667h-142zM280 840l-106 -123h-86l77 123h115z" />
    <glyph glyph-name="Icircumflex" unicode="&#xce;" horiz-adv-x="278" 
d="M68 0v667h142v-667h-142zM139 788l-44 -71h-93l82 123h110l81 -123h-92z" />
    <glyph glyph-name="Idieresis" unicode="&#xcf;" horiz-adv-x="278" 
d="M69 0v667h142v-667h-142zM261 830v-110h-101v110h101zM119 830v-110h-101v110h101z" />
    <glyph glyph-name="Eth" unicode="&#xd0;" horiz-adv-x="717" 
d="M68 281h-64v110h64v276h283q103 0 166 -21.5t102 -70.5q30 -36 48 -102.5t18 -140.5q0 -96 -28 -177q-36 -108 -142 -140q-46 -15 -164 -15h-283v281zM210 281v-162h141q96 0 132 44q46 56 46 170q0 61 -16.5 110.5t-44.5 73.5q-38 31 -117 31h-141v-157h149v-110h-149z
" />
    <glyph glyph-name="Ntilde" unicode="&#xd1;" horiz-adv-x="718" 
d="M203 489v-489h-135v667h181l266 -497v497h135v-667h-174zM469 828h62q-12 -108 -93 -108q-34 0 -113 31q-15 5 -26 5q-30 0 -36 -34h-62q15 108 94 108q24 0 84 -21q41 -14 55 -14q28 0 35 33z" />
    <glyph glyph-name="Ograve" unicode="&#xd2;" horiz-adv-x="723" 
d="M364 672q86 0 155 -27t106 -76q65 -84 65 -242q0 -163 -80.5 -247t-238.5 -84q-96 0 -169 30.5t-112 86.5q-58 82 -58 218q0 196 101 276q80 65 231 65zM360 559q-99 0 -141 -67q-31 -49 -31 -157q0 -117 42 -172t132 -55q89 0 130.5 55t41.5 173q0 115 -42 169t-132 54z
M221 840h122l91 -123h-87z" />
    <glyph glyph-name="Oacute" unicode="&#xd3;" horiz-adv-x="723" 
d="M364 672q86 0 155 -27t106 -76q65 -84 65 -242q0 -163 -80.5 -247t-238.5 -84q-96 0 -169 30.5t-112 86.5q-58 82 -58 218q0 196 101 276q80 65 231 65zM360 559q-99 0 -141 -67q-31 -49 -31 -157q0 -117 42 -172t132 -55q89 0 130.5 55t41.5 173q0 115 -42 169t-132 54z
M511 840l-125 -123h-88l92 123h121z" />
    <glyph glyph-name="Ocircumflex" unicode="&#xd4;" horiz-adv-x="723" 
d="M364 672q86 0 155 -27t106 -76q65 -84 65 -242q0 -163 -80.5 -247t-238.5 -84q-96 0 -169 30.5t-112 86.5q-58 82 -58 218q0 196 101 276q80 65 231 65zM360 559q-99 0 -141 -67q-31 -49 -31 -157q0 -117 42 -172t132 -55q89 0 130.5 55t41.5 173q0 115 -42 169t-132 54z
M361 788l-62 -71h-101l108 123h110l109 -123h-101z" />
    <glyph glyph-name="Otilde" unicode="&#xd5;" horiz-adv-x="723" 
d="M364 672q86 0 155 -27t106 -76q65 -84 65 -242q0 -163 -80.5 -247t-238.5 -84q-96 0 -169 30.5t-112 86.5q-58 82 -58 218q0 196 101 276q80 65 231 65zM360 559q-99 0 -141 -67q-31 -49 -31 -157q0 -117 42 -172t132 -55q89 0 130.5 55t41.5 173q0 115 -42 169t-132 54z
M471 828h62q-12 -108 -93 -108q-34 0 -113 31q-15 5 -26 5q-30 0 -36 -34h-62q15 108 94 108q24 0 84 -21q41 -14 55 -14q28 0 35 33z" />
    <glyph glyph-name="Odieresis" unicode="&#xd6;" horiz-adv-x="723" 
d="M364 672q86 0 155 -27t106 -76q65 -84 65 -242q0 -163 -80.5 -247t-238.5 -84q-96 0 -169 30.5t-112 86.5q-58 82 -58 218q0 196 101 276q80 65 231 65zM360 559q-99 0 -141 -67q-31 -49 -31 -157q0 -117 42 -172t132 -55q89 0 130.5 55t41.5 173q0 115 -42 169t-132 54z
M513 830v-110h-108v110h108zM318 830v-110h-108v110h108z" />
    <glyph glyph-name="minus" unicode="&#xd7;" horiz-adv-x="559" 
d="M37 395h486v-109h-486v109z" />
    <glyph glyph-name="Oslash" unicode="&#xd8;" horiz-adv-x="723" 
d="M182 35l-31 -39h-119l75 94q-75 90 -75 240q0 197 101 277q79 65 228 65q103 0 181 -37l29 36h119l-73 -92q73 -87 73 -252q0 -186 -103 -269q-78 -62 -215 -62q-104 0 -190 39zM516 461l-250 -330q40 -23 98 -23q87 0 128.5 55.5t41.5 172.5q0 72 -18 125zM207 206
l250 330q-40 23 -97 23q-99 0 -141 -67q-31 -51 -31 -156q0 -78 19 -130z" />
    <glyph glyph-name="Ugrave" unicode="&#xd9;" horiz-adv-x="703" 
d="M203 667v-400q0 -88 37 -122q43 -38 115 -38q49 0 85 17t49 47q12 29 12 96v400h142v-393q0 -154 -72 -214q-78 -65 -219 -65q-158 0 -230 72q-35 35 -48 78t-13 119v403h142zM205 840h122l91 -123h-87z" />
    <glyph glyph-name="Uacute" unicode="&#xda;" horiz-adv-x="703" 
d="M203 667v-400q0 -88 37 -122q43 -38 115 -38q49 0 85 17t49 47q12 29 12 96v400h142v-393q0 -154 -72 -214q-78 -65 -219 -65q-158 0 -230 72q-35 35 -48 78t-13 119v403h142zM502 840l-125 -123h-88l92 123h121z" />
    <glyph glyph-name="Ucircumflex" unicode="&#xdb;" horiz-adv-x="703" 
d="M203 667v-400q0 -88 37 -122q43 -38 115 -38q49 0 85 17t49 47q12 29 12 96v400h142v-393q0 -154 -72 -214q-78 -65 -219 -65q-158 0 -230 72q-35 35 -48 78t-13 119v403h142zM352 788l-62 -71h-101l108 123h110l109 -123h-101z" />
    <glyph glyph-name="Udieresis" unicode="&#xdc;" horiz-adv-x="703" 
d="M203 667v-400q0 -88 37 -122q43 -38 115 -38q49 0 85 17t49 47q12 29 12 96v400h142v-393q0 -154 -72 -214q-78 -65 -219 -65q-158 0 -230 72q-35 35 -48 78t-13 119v403h142zM504 830v-110h-108v110h108zM309 830v-110h-108v110h108z" />
    <glyph glyph-name="Yacute" unicode="&#xdd;" horiz-adv-x="654" 
d="M250 292l-247 375h167l153 -260l161 260h168l-260 -380v-287h-142v292zM480 840l-125 -123h-88l92 123h121z" />
    <glyph glyph-name="Thorn" unicode="&#xde;" horiz-adv-x="686" 
d="M68 0v667h142v-107h195q87 0 127 -12t72 -48q59 -67 59 -157q0 -111 -74 -174q-29 -25 -61.5 -34t-89.5 -9h-228v-126h-142zM210 245h195q51 0 73 19q29 24 29 84q0 70 -50 87q-17 6 -52 6h-195v-196z" />
    <glyph glyph-name="germandbls" unicode="&#xdf;" horiz-adv-x="603" 
d="M200 354v-354h-134v472q0 107 65 155q58 44 154 44q87 0 141.5 -39.5t54.5 -102.5q0 -61 -52 -103q64 -8 101.5 -60t37.5 -134q0 -130 -81 -189q-48 -35 -128 -42q-16 -1 -79 -1h-47v104h69q44 0 64.5 6t36.5 24q29 33 29 93q0 78 -46 109q-30 18 -104 18h-82zM200 458
h101q41 0 57 10t16 37q0 62 -74 62q-60 0 -80 -17t-20 -69v-23z" />
    <glyph glyph-name="agrave" unicode="&#xe0;" horiz-adv-x="595" 
d="M238 296h164q0 52 -20.5 69.5t-81.5 17.5h-226v104h226q93 0 131 -12q68 -22 94 -102q11 -34 11 -99v-274h-282q-78 0 -107.5 5t-51.5 21q-56 40 -56 118q0 51 24.5 89.5t64.5 51.5q35 11 110 11zM402 192h-155q-32 0 -43 -3q-29 -8 -29 -42q0 -23 16.5 -33t55.5 -10h155
v88zM163 675h118l92 -130h-86z" />
    <glyph glyph-name="aacute" unicode="&#xe1;" horiz-adv-x="595" 
d="M238 296h164q0 52 -20.5 69.5t-81.5 17.5h-226v104h226q93 0 131 -12q68 -22 94 -102q11 -34 11 -99v-274h-282q-78 0 -107.5 5t-51.5 21q-56 40 -56 118q0 51 24.5 89.5t64.5 51.5q35 11 110 11zM402 192h-155q-32 0 -43 -3q-29 -8 -29 -42q0 -23 16.5 -33t55.5 -10h155
v88zM446 675l-124 -130h-86l92 130h118z" />
    <glyph glyph-name="acircumflex" unicode="&#xe2;" horiz-adv-x="595" 
d="M238 296h164q0 52 -20.5 69.5t-81.5 17.5h-226v104h226q93 0 131 -12q68 -22 94 -102q11 -34 11 -99v-274h-282q-78 0 -107.5 5t-51.5 21q-56 40 -56 118q0 51 24.5 89.5t64.5 51.5q35 11 110 11zM402 192h-155q-32 0 -43 -3q-29 -8 -29 -42q0 -23 16.5 -33t55.5 -10h155
v88zM301 624l-63 -79h-97l106 130h108l106 -130h-96z" />
    <glyph glyph-name="atilde" unicode="&#xe3;" horiz-adv-x="595" 
d="M238 296h164q0 52 -20.5 69.5t-81.5 17.5h-226v104h226q93 0 131 -12q68 -22 94 -102q11 -34 11 -99v-274h-282q-78 0 -107.5 5t-51.5 21q-56 40 -56 118q0 51 24.5 89.5t64.5 51.5q35 11 110 11zM402 192h-155q-32 0 -43 -3q-29 -8 -29 -42q0 -23 16.5 -33t55.5 -10h155
v88zM404 658h60q-12 -108 -92 -108q-32 0 -80 20q-38 16 -55 16q-28 0 -36 -34h-60q15 108 94 108q26 0 79 -21q38 -14 55 -14q28 0 35 33z" />
    <glyph glyph-name="adieresis" unicode="&#xe4;" horiz-adv-x="595" 
d="M238 296h164q0 52 -20.5 69.5t-81.5 17.5h-226v104h226q93 0 131 -12q68 -22 94 -102q11 -34 11 -99v-274h-282q-78 0 -107.5 5t-51.5 21q-56 40 -56 118q0 51 24.5 89.5t64.5 51.5q35 11 110 11zM402 192h-155q-32 0 -43 -3q-29 -8 -29 -42q0 -23 16.5 -33t55.5 -10h155
v88zM448 660v-110h-107v110h107zM262 660v-110h-107v110h107z" />
    <glyph glyph-name="aring" unicode="&#xe5;" horiz-adv-x="595" 
d="M238 296h164q0 52 -20.5 69.5t-81.5 17.5h-226v104h226q93 0 131 -12q68 -22 94 -102q11 -34 11 -99v-274h-282q-78 0 -107.5 5t-51.5 21q-56 40 -56 118q0 51 24.5 89.5t64.5 51.5q35 11 110 11zM402 192h-155q-32 0 -43 -3q-29 -8 -29 -42q0 -23 16.5 -33t55.5 -10h155
v88zM302 725q38 0 66 -28.5t28 -66.5q0 -40 -28 -68t-67 -28q-40 0 -68 28t-28 68t28 67.5t69 27.5zM300 668q-16 0 -27 -11t-11 -27t11 -27.5t27 -11.5t27.5 11.5t11.5 27.5t-11.5 27t-27.5 11z" />
    <glyph glyph-name="ae" unicode="&#xe6;" horiz-adv-x="863" 
d="M74 487h240q77 0 107 -7t57 -32q55 39 154 39h188v-104h-179q-55 0 -77 -18.5t-27 -68.5h283v-104h-283q4 -49 37 -71q24 -17 82 -17h164v-104h-566q-78 0 -107.5 5t-51.5 21q-56 40 -56 118q0 51 24.5 89.5t64.5 51.5q35 11 110 11h164q0 52 -20.5 69.5t-81.5 17.5h-226
v104zM402 192h-155q-32 0 -43 -3q-29 -8 -29 -42q0 -23 16.5 -33t55.5 -10h155v88z" />
    <glyph glyph-name="ccedilla" unicode="&#xe7;" horiz-adv-x="510" 
d="M328 0v-45h10q44 0 63 -13q26 -18 26 -60q0 -51 -40 -65q-18 -6 -56 -6h-78v49h70q30 0 30 27q0 17 -7 22.5t-27 5.5h-42v85q-64 1 -100.5 12.5t-67.5 40.5q-76 71 -76 192q0 130 75 194q55 48 182 48h182v-104h-160q-76 0 -109 -33t-33 -107q0 -81 51 -115
q35 -24 106 -24h145v-104h-144z" />
    <glyph glyph-name="egrave" unicode="&#xe8;" horiz-adv-x="508" 
d="M463 296v-104h-282q4 -50 36 -71q25 -17 82 -17h164v-104h-178q-58 0 -94.5 10.5t-69.5 35.5q-88 67 -88 204q0 64 25.5 118.5t69.5 83.5q52 35 147 35h188v-104h-178q-55 0 -77.5 -18.5t-26.5 -68.5h282zM160 675h118l92 -130h-86z" />
    <glyph glyph-name="eacute" unicode="&#xe9;" horiz-adv-x="508" 
d="M463 296v-104h-282q4 -50 36 -71q25 -17 82 -17h164v-104h-178q-58 0 -94.5 10.5t-69.5 35.5q-88 67 -88 204q0 64 25.5 118.5t69.5 83.5q52 35 147 35h188v-104h-178q-55 0 -77.5 -18.5t-26.5 -68.5h282zM442 675l-124 -130h-86l92 130h118z" />
    <glyph glyph-name="ecircumflex" unicode="&#xea;" horiz-adv-x="508" 
d="M463 296v-104h-282q4 -50 36 -71q25 -17 82 -17h164v-104h-178q-58 0 -94.5 10.5t-69.5 35.5q-88 67 -88 204q0 64 25.5 118.5t69.5 83.5q52 35 147 35h188v-104h-178q-55 0 -77.5 -18.5t-26.5 -68.5h282zM295 624l-63 -79h-97l106 130h108l106 -130h-96z" />
    <glyph glyph-name="edieresis" unicode="&#xeb;" horiz-adv-x="508" 
d="M463 296v-104h-282q4 -50 36 -71q25 -17 82 -17h164v-104h-178q-58 0 -94.5 10.5t-69.5 35.5q-88 67 -88 204q0 64 25.5 118.5t69.5 83.5q52 35 147 35h188v-104h-178q-55 0 -77.5 -18.5t-26.5 -68.5h282zM442 660v-110h-107v110h107zM256 660v-110h-107v110h107z" />
    <glyph glyph-name="igrave" unicode="&#xec;" horiz-adv-x="266" 
d="M66 487h134v-487h-134v487zM-3 675h112l78 -130h-86z" />
    <glyph glyph-name="iacute" unicode="&#xed;" horiz-adv-x="266" 
d="M66 487h134v-487h-134v487zM271 675l-105 -130h-85l78 130h112z" />
    <glyph glyph-name="icircumflex" unicode="&#xee;" horiz-adv-x="266" 
d="M66 487h134v-487h-134v487zM133 627l-44 -82h-89l80 130h107l80 -130h-89z" />
    <glyph glyph-name="idieresis" unicode="&#xef;" horiz-adv-x="266" 
d="M66 487h134v-487h-134v487zM253 660v-110h-100v110h100zM113 660v-110h-100v110h100z" />
    <glyph glyph-name="eth" unicode="&#xf0;" horiz-adv-x="584" 
d="M233 551l-91 -61l-36 56l55 38q-15 6 -63 22l49 79q57 -9 119 -31l95 64l38 -56l-61 -41q80 -50 124 -104q88 -108 88 -255q0 -131 -79 -210q-59 -59 -181 -59t-189.5 66.5t-67.5 185.5q0 110 68 179.5t177 69.5q35 0 55 -9q-29 35 -100 66zM289 392q-119 0 -119 -151
q0 -145 122 -145q119 0 119 149q0 147 -122 147z" />
    <glyph glyph-name="ntilde" unicode="&#xf1;" horiz-adv-x="578" 
d="M66 487h258q58 0 88 -8t56 -31q51 -48 51 -148v-300h-134v315q0 37 -16 52.5t-53 15.5h-116v-383h-134v487zM381 658h60q-12 -108 -92 -108q-32 0 -80 20q-38 16 -55 16q-28 0 -36 -34h-60q15 108 94 108q26 0 79 -21q38 -14 55 -14q28 0 35 33z" />
    <glyph glyph-name="ograve" unicode="&#xf2;" horiz-adv-x="582" 
d="M293 494q135 0 199 -82q56 -71 56 -174q0 -113 -70 -179t-190 -66t-187.5 66.5t-67.5 185.5q0 115 70.5 182t189.5 67zM289 391q-119 0 -119 -150q0 -145 122 -145q119 0 119 149q0 146 -122 146zM152 675h118l92 -130h-86z" />
    <glyph glyph-name="oacute" unicode="&#xf3;" horiz-adv-x="582" 
d="M293 494q135 0 199 -82q56 -71 56 -174q0 -113 -70 -179t-190 -66t-187.5 66.5t-67.5 185.5q0 115 70.5 182t189.5 67zM289 391q-119 0 -119 -150q0 -145 122 -145q119 0 119 149q0 146 -122 146zM436 675l-124 -130h-86l92 130h118z" />
    <glyph glyph-name="ocircumflex" unicode="&#xf4;" horiz-adv-x="582" 
d="M293 494q135 0 199 -82q56 -71 56 -174q0 -113 -70 -179t-190 -66t-187.5 66.5t-67.5 185.5q0 115 70.5 182t189.5 67zM289 391q-119 0 -119 -150q0 -145 122 -145q119 0 119 149q0 146 -122 146zM291 624l-63 -79h-97l106 130h108l106 -130h-96z" />
    <glyph glyph-name="otilde" unicode="&#xf5;" horiz-adv-x="582" 
d="M293 494q135 0 199 -82q56 -71 56 -174q0 -113 -70 -179t-190 -66t-187.5 66.5t-67.5 185.5q0 115 70.5 182t189.5 67zM289 391q-119 0 -119 -150q0 -145 122 -145q119 0 119 149q0 146 -122 146zM399 658h60q-12 -108 -92 -108q-32 0 -80 20q-38 16 -55 16
q-28 0 -36 -34h-60q15 108 94 108q26 0 79 -21q38 -14 55 -14q28 0 35 33z" />
    <glyph glyph-name="odieresis" unicode="&#xf6;" horiz-adv-x="582" 
d="M293 494q135 0 199 -82q56 -71 56 -174q0 -113 -70 -179t-190 -66t-187.5 66.5t-67.5 185.5q0 115 70.5 182t189.5 67zM289 391q-119 0 -119 -150q0 -145 122 -145q119 0 119 149q0 146 -122 146zM437 660v-110h-107v110h107zM251 660v-110h-107v110h107z" />
    <glyph glyph-name="multiply" unicode="&#xf7;" horiz-adv-x="559" 
d="M50 188l152 152l-152 152l77 78l152 -153l152 153l78 -78l-152 -152l152 -152l-78 -77l-152 152l-152 -152z" />
    <glyph glyph-name="oslash" unicode="&#xf8;" horiz-adv-x="582" 
d="M433 463l27 31h102l-71 -80q58 -72 58 -176q0 -114 -69.5 -179.5t-190.5 -65.5q-77 0 -139 31l-28 -31h-102l69 78q-56 65 -56 175q0 113 70 180.5t187 67.5q82 0 143 -31zM180 169l172 210q-25 13 -63 13q-119 0 -119 -150q0 -42 10 -73zM401 319l-171 -210
q27 -14 62 -14q120 0 120 149q0 43 -11 75z" />
    <glyph glyph-name="ugrave" unicode="&#xf9;" horiz-adv-x="584" 
d="M383 104v383h134v-487h-263q-58 0 -88 8t-56 31q-51 48 -51 148v300h134v-313q0 -33 17 -51.5t47 -18.5h126zM143 675h118l92 -130h-86z" />
    <glyph glyph-name="uacute" unicode="&#xfa;" horiz-adv-x="584" 
d="M383 104v383h134v-487h-263q-58 0 -88 8t-56 31q-51 48 -51 148v300h134v-313q0 -33 17 -51.5t47 -18.5h126zM437 675l-124 -130h-86l92 130h118z" />
    <glyph glyph-name="ucircumflex" unicode="&#xfb;" horiz-adv-x="584" 
d="M383 104v383h134v-487h-263q-58 0 -88 8t-56 31q-51 48 -51 148v300h134v-313q0 -33 17 -51.5t47 -18.5h126zM288 624l-63 -79h-97l106 130h108l106 -130h-96z" />
    <glyph glyph-name="udieresis" unicode="&#xfc;" horiz-adv-x="584" 
d="M383 104v383h134v-487h-263q-58 0 -88 8t-56 31q-51 48 -51 148v300h134v-313q0 -33 17 -51.5t47 -18.5h126zM435 660v-110h-107v110h107zM249 660v-110h-107v110h107z" />
    <glyph glyph-name="yacute" unicode="&#xfd;" horiz-adv-x="574" 
d="M373 104v383h134v-477q0 -115 -78 -159q-44 -24 -131 -24h-239v104h239q32 0 50 7q21 8 24 44l1 18h-119q-57 0 -91 11t-60 39q-26 29 -35 62t-9 103v272h134v-259q0 -76 13.5 -100t56.5 -24h110zM433 675l-124 -130h-86l92 130h118z" />
    <glyph glyph-name="thorn" unicode="&#xfe;" horiz-adv-x="590" 
d="M200 487h100q69 0 104 -8.5t66 -33.5q87 -67 87 -209q0 -107 -64 -173q-62 -63 -175 -63h-118v-183h-134v850h134v-180zM200 383v-279h82q138 0 138 142q0 66 -33 101.5t-95 35.5h-92z" />
    <glyph glyph-name="ydieresis" unicode="&#xff;" horiz-adv-x="574" 
d="M373 104v383h134v-477q0 -115 -78 -159q-44 -24 -131 -24h-239v104h239q32 0 50 7q21 8 24 44l1 18h-119q-57 0 -91 11t-60 39q-26 29 -35 62t-9 103v272h134v-259q0 -76 13.5 -100t56.5 -24h110zM430 660v-110h-107v110h107zM244 660v-110h-107v110h107z" />
    <glyph glyph-name="dotlessi" unicode="&#x131;" horiz-adv-x="266" 
d="M66 487h134v-487h-134v487z" />
    <glyph glyph-name="Lslash" unicode="&#x141;" horiz-adv-x="537" 
d="M207 667v-224l124 64v-111l-124 -65v-38q4 -87 8.5 -107.5t24.5 -37.5t49.5 -23t96.5 -6h136v-119h-150q-101 -2 -147.5 9.5t-89.5 47.5q-41 40 -54.5 84.5t-15.5 141.5l-62 -30v111l62 31v272h142z" />
    <glyph glyph-name="lslash" unicode="&#x142;" horiz-adv-x="266" 
d="M200 667v-255l62 42v-100l-62 -42v-312h-134v254l-63 -43v100l63 43v313h134z" />
    <glyph glyph-name="OE" unicode="&#x152;" horiz-adv-x="1112" 
d="M1068 0h-185q-112 0 -169.5 18t-99.5 66q-77 -88 -243 -88q-96 0 -169 30.5t-112 86.5q-58 82 -58 217q0 197 101 277q80 65 228 65q81 0 148.5 -24t104.5 -65q41 47 88.5 65.5t125.5 18.5h240v-119h-185q-72 0 -105.5 -10t-55.5 -39q-15 -20 -20 -39t-9 -69h375v-119
h-375q7 -85 50.5 -119t145.5 -34h179v-119zM360 559q-98 0 -141 -67q-31 -49 -31 -158q0 -116 42 -171t132 -55q89 0 130.5 55t41.5 173q0 115 -42 169t-132 54z" />
    <glyph glyph-name="oe" unicode="&#x153;" horiz-adv-x="897" 
d="M852 0h-178q-69 0 -108.5 14.5t-79.5 52.5q-69 -74 -198 -74q-120 0 -187.5 66.5t-67.5 185.5q0 113 69.5 181t186.5 68q133 0 194 -72q33 36 73.5 50.5t107.5 14.5h188v-104h-178q-55 0 -77.5 -18.5t-26.5 -68.5h282v-104h-282q4 -50 36 -71q25 -17 82 -17h164v-104z
M289 392q-119 0 -119 -151q0 -145 121 -145q120 0 120 149q0 147 -122 147z" />
    <glyph glyph-name="Scaron" unicode="&#x160;" horiz-adv-x="695" 
d="M66 0v119h304q74 0 99 16q33 20 33 61q0 50 -43 71q-21 12 -72 12h-123q-116 0 -167 44q-63 55 -63 146q0 65 32 115.5t84 68.5q38 14 143 14h330v-119h-298q-68 -1 -89 -6t-33 -23.5t-12 -44.5q0 -48 38 -65q24 -11 84 -11h107q74 0 117.5 -12.5t72.5 -42.5
q22 -22 36 -62.5t14 -83.5q0 -54 -23 -100t-62 -70q-25 -16 -62 -21.5t-112 -5.5h-335zM367 769l62 71h102l-109 -123h-110l-108 123h101z" />
    <glyph glyph-name="scaron" unicode="&#x161;" horiz-adv-x="549" 
d="M489 487v-104h-238q-45 0 -59.5 -8.5t-14.5 -34.5q0 -27 23 -41q13 -7 64 -7h79q80 0 124 -36t44 -103q0 -45 -22.5 -85t-56.5 -55q-27 -13 -109 -13h-277v104h238q41 0 63 2q33 5 33 39q0 33 -25 42q-11 6 -56 6h-82q-85 0 -123 30q-55 42 -55 122q0 76 56 119
q31 23 108 23h286zM285 596l63 79h97l-106 -130h-108l-106 130h96z" />
    <glyph glyph-name="Ydieresis" unicode="&#x178;" horiz-adv-x="654" 
d="M250 292l-247 375h167l153 -260l161 260h168l-260 -380v-287h-142v292zM479 830v-110h-108v110h108zM284 830v-110h-108v110h108z" />
    <glyph glyph-name="Zcaron" unicode="&#x17d;" horiz-adv-x="654" 
d="M458 548h-421v119h580v-123l-406 -425h406v-119h-580v116zM326 769l62 71h102l-109 -123h-110l-108 123h101z" />
    <glyph glyph-name="zcaron" unicode="&#x17e;" horiz-adv-x="527" 
d="M312 383h-281v104h459v-101l-281 -282h281v-104h-459v101zM261 596l63 79h97l-106 -130h-108l-106 130h96z" />
    <glyph glyph-name="florin" unicode="&#x192;" horiz-adv-x="506" 
d="M179 316h-88l17 104h88l15 96q12 74 45 109q41 42 120 42h118l-17 -104h-67q-31 0 -46 -12.5t-20 -41.5l-14 -89h125l-17 -104h-125l-47 -299q-14 -85 -52 -121t-114 -36h-118l16 104h68q41 0 55 20q7 10 14 51z" />
    <glyph glyph-name="circumflex" unicode="&#x2c6;" 
d="M250 624l-63 -79h-97l106 130h108l106 -130h-96z" />
    <glyph glyph-name="caron" unicode="&#x2c7;" 
d="M250 596l63 79h97l-106 -130h-108l-106 130h96z" />
    <glyph glyph-name="breve" unicode="&#x2d8;" 
d="M103 675h74q14 -56 73 -56q60 0 72 56h74q-5 -63 -43 -97t-103 -34t-104 34.5t-43 96.5z" />
    <glyph glyph-name="dotaccent" unicode="&#x2d9;" 
d="M304 660v-110h-107v110h107z" />
    <glyph glyph-name="ring" unicode="&#x2da;" 
d="M251 725q38 0 66 -28.5t28 -66.5q0 -40 -28 -68t-67 -28q-40 0 -68 28t-28 68t28 67.5t69 27.5zM249 668q-16 0 -27 -11t-11 -27t11 -27.5t27 -11.5q17 0 28 11.5t11 27.5t-11.5 27t-27.5 11z" />
    <glyph glyph-name="ogonek" unicode="&#x2db;" 
d="M406 0h74q-60 -31 -60 -74q0 -37 42 -37q20 0 45 11v-57q-35 -13 -68 -13q-94 0 -94 75q0 57 61 95z" />
    <glyph glyph-name="tilde" unicode="&#x2dc;" 
d="M351 658h60q-12 -108 -92 -108q-32 0 -80 20q-38 16 -55 16q-28 0 -36 -34h-60q15 108 94 108q26 0 79 -21q38 -14 55 -14q28 0 35 33z" />
    <glyph glyph-name="hungarumlaut" unicode="&#x2dd;" 
d="M302 675l-113 -130h-73l83 130h103zM443 675l-114 -130h-73l83 130h104z" />
    <glyph glyph-name="endash" unicode="&#x2013;" horiz-adv-x="720" 
d="M586 318v-100h-453v100h453z" />
    <glyph glyph-name="emdash" unicode="&#x2014;" horiz-adv-x="697" 
d="M697 318v-100h-697v100h697z" />
    <glyph glyph-name="quoteleft" unicode="&#x2018;" horiz-adv-x="234" 
d="M51 400v116l77 151h61l-61 -137h44v-130h-121z" />
    <glyph glyph-name="quoteright" unicode="&#x2019;" horiz-adv-x="234" 
d="M182 667v-116l-77 -151h-61l61 137h-44v130h121z" />
    <glyph glyph-name="quotesinglbase" unicode="&#x201a;" horiz-adv-x="234" 
d="M182 130v-116l-77 -151h-61l61 137h-44v130h121z" />
    <glyph glyph-name="quotedblleft" unicode="&#x201c;" horiz-adv-x="428" 
d="M51 400v116l77 151h61l-61 -137h44v-130h-121zM246 400v116l77 151h61l-61 -137h44v-130h-121z" />
    <glyph glyph-name="quotedblright" unicode="&#x201d;" horiz-adv-x="428" 
d="M182 667v-116l-77 -151h-61l61 137h-44v130h121zM377 667v-116l-77 -151h-61l61 137h-44v130h121z" />
    <glyph glyph-name="quotedblbase" unicode="&#x201e;" horiz-adv-x="428" 
d="M182 130v-116l-77 -151h-61l61 137h-44v130h121zM377 130v-116l-77 -151h-61l61 137h-44v130h121z" />
    <glyph glyph-name="dagger" unicode="&#x2020;" horiz-adv-x="543" 
d="M338 -155h-134v538h-171v104h171v180h134v-180h172v-104h-172v-538z" />
    <glyph glyph-name="daggerdbl" unicode="&#x2021;" horiz-adv-x="543" 
d="M338 258h172v-104h-172v-309h-134v309h-171v104h171v125h-171v104h171v180h134v-180h172v-104h-172v-125z" />
    <glyph glyph-name="bullet" unicode="&#x2022;" horiz-adv-x="667" 
d="M337 478q55 0 95.5 -41t40.5 -97q0 -58 -40.5 -98.5t-97.5 -40.5t-98 40.5t-41 97.5q0 58 41 98.5t100 40.5z" />
    <glyph glyph-name="ellipsis" unicode="&#x2026;" horiz-adv-x="672" 
d="M172 130v-130h-121v130h121zM396 130v-130h-121v130h121zM620 130v-130h-121v130h121z" />
    <glyph glyph-name="perthousand" unicode="&#x2030;" horiz-adv-x="1278" 
d="M217 670q177 0 177 -169q0 -168 -169 -168q-186 0 -186 168q0 87 43 128t135 41zM213 598q-76 0 -76 -93q0 -52 19.5 -76t63.5 -24q76 0 76 99q0 94 -83 94zM531 667h85l-269 -667h-85zM666 333q177 0 177 -169q0 -168 -170 -168q-186 0 -186 168q0 87 43.5 128t135.5 41
zM661 261q-76 0 -76 -94q0 -52 20 -75.5t64 -23.5q76 0 76 99q0 94 -84 94zM1061 333q177 0 177 -169q0 -168 -170 -168q-186 0 -186 168q0 87 43.5 128t135.5 41zM1056 261q-76 0 -76 -94q0 -52 20 -75.5t64 -23.5q76 0 76 99q0 94 -84 94z" />
    <glyph glyph-name="guilsinglleft" unicode="&#x2039;" horiz-adv-x="225" 
d="M175 408v-119l-70 -49l70 -47v-119l-133 105v121z" />
    <glyph glyph-name="guilsinglright" unicode="&#x203a;" horiz-adv-x="225" 
d="M50 408l133 -108v-121l-133 -105v119l70 47l-70 49v119z" />
    <glyph glyph-name="fraction" unicode="&#x2044;" horiz-adv-x="159" 
d="M216 671h96l-374 -675h-96z" />
    <glyph glyph-name="divide" unicode="&#x2122;" horiz-adv-x="559" 
d="M281 583q29 0 50 -21.5t21 -50.5q0 -30 -21 -51t-51 -21t-51 21t-21 51t21 51t52 21zM281 241q29 0 50 -21.5t21 -50.5q0 -30 -21 -51t-51 -21t-51 21t-21 51t21 51t52 21zM37 395h486v-109h-486v109z" />
    <glyph glyph-name="degree" unicode="&#x2212;" horiz-adv-x="385" 
d="M194 671q62 0 106.5 -44t44.5 -106t-45 -106.5t-108 -44.5t-108 44.5t-45 106.5q0 63 45 106.5t110 43.5zM191 596q-31 0 -52.5 -22t-21.5 -52q0 -31 21.5 -52.5t52.5 -21.5q30 0 52 21.5t22 52.5t-21.5 52.5t-52.5 21.5z" />
    <glyph glyph-name="fi" unicode="&#xfb01;" horiz-adv-x="613" 
d="M547 487v-487h-134v383h-173v-383h-134v383h-88v104h88v29q0 79 33.5 115t107.5 36h98v-104h-48q-31 0 -44 -12.5t-13 -41.5v-22h307zM413 537v130h134v-130h-134z" />
    <glyph glyph-name="fl" unicode="&#xfb02;" horiz-adv-x="613" 
d="M345 667v-104h-48q-31 0 -44 -12.5t-13 -41.5v-22h105v-104h-105v-383h-134v383h-88v104h88v29q0 79 33.5 115t107.5 36h98zM547 0h-134v667h134v-667z" />
    <glyph glyph-name="mu" horiz-adv-x="590" 
d="M200 3v-186h-134v670h134v-316q0 -31 17.5 -49t46.5 -18h126v383h134v-487h-263q-45 0 -61 3z" />
    </font>
</defs>
</svg>
